<?xml version="1.0" encoding="UTF-8"?>
<svg id="Layer_1" data-name="Layer 1" xmlns="http://www.w3.org/2000/svg" viewBox="0 0 136.8 137.8">
  <path d="M51.49.03c40.82-1.33,66.53,43.68,47.45,78.89-.66,1.22-2.85,4.09-3.13,5.02-.17.57-.18,1.18-.06,1.76,2.43,2.19,4.18,5.72,7.33,6.83,2.87-.37,4.34,1.08,6.31,2.81,4.9,4.33,9.79,9.67,14.51,14.29,4.11,4.02,12.26,10.06,12.84,15.96.81,8.2-7.41,14.46-15.04,11.44-3.45-1.37-12.15-10.72-15.2-13.84-4.22-4.31-9.22-9.26-13.08-13.8-2.03-2.39-1.31-2.51-2.05-5.15-.86-3.06-5.12-5.19-7.12-7.54l-.96.15C50.04,121.02,5.68,100.09.46,60.03-3.63,28.68,19.97,1.06,51.49.03ZM50.77,14.43c-28.6,1.55-45.51,33.07-31.67,58.17,15.22,27.6,55.69,26.49,68.48-2.64,11.61-26.43-7.46-57.12-36.81-55.53Z"/>
  <path d="M59.64,32.41c1.74-.35,3.86.79,3.92,2.7.02.73-.22,1.36-.38,2.04-1.06,4.41-3.7,9.75-5.22,14.22-2.25,6.58-4.06,14.59-6.78,20.82-.85,1.96-2,3.83-4.45,3.26-3.39-.79-1.87-4.55-1.25-6.8,1.63-5.91,3.77-12.18,5.76-18,1.63-4.79,3.56-11.21,5.71-15.65.51-1.06,1.47-2.34,2.69-2.59Z"/>
  <path d="M39,37.92c1.7-.35,5.02,2.63,4.52,4.29-.35.6-.72,1.18-1.21,1.69-2.67,2.79-5.83,5.25-8.53,8.03-.74.92-.65,1.95,0,2.88,1.6,2.31,5.37,5.14,7.32,7.56.67.83,1.52,1.78,1.28,2.95-.26,1.29-4.17,4.32-5.48,2.46-3.35-4.15-8.74-7.75-12-11.76-.62-.76-1.28-1.58-1.36-2.61.03-.69.81-1.77,1.27-2.29,3.14-3.52,8.91-9.25,12.57-12.15.39-.31,1.17-.94,1.62-1.04h0Z"/>
  <path d="M68.26,39.62c.81-.02,3.18,2.26,3.92,2.93,2.61,2.37,6.7,6.23,8.88,8.88,2.34,2.84-.62,5-2.64,7.21-2.49,2.73-7.01,7.41-9.84,9.6-.47.36-.92.82-1.56.86-1.01.02-4.62-3.23-3.86-4.59l9.26-9.47c.52-.58.71-1.5.25-2.17-1.27-1.84-7.79-6.86-8.3-8.49-.13-.43-.18-.88-.1-1.32.17-.98,3-3.4,3.99-3.43h0Z"/>
</svg>