<?xml version="1.0" encoding="UTF-8"?>
<svg id="Layer_1" data-name="Layer 1"
  xmlns="http://www.w3.org/2000/svg" viewBox="0 0 175.84 173.82">
  <path d="M84.72,157.16l.76-5.23,6.91-1.01c.12,2.98-1.51,11.06.23,13.33,2.4,3.12,3.26-2.21,3.36-3.85.19-2.95-.31-6.27-.48-9.24l7.41,1.7c.03,4.18.62,8.39,0,12.55s-3.62,7.33-8.04,7.8c-7.71.82-9.78-4.91-10.05-11.49-.79,4.66-4.46,10.89-9.63,11.5s-8.97-.81-10.26-6.25c-1.48-6.26,1.11-12.57,7.2-15.05,5.14-2.1,11.43-.8,12.57,5.24ZM76.24,158.44c-5.34.11-6.52,9.25-.65,7,3.45-1.32,3.6-7.06.65-7Z"/>
  <path d="M35.52,165.8c-.45.6,1.61,1.04,1.91,1.09,3.71.61,6.15-1.38,8.89-3.49l1.21,4.32,3-3.13c1.73.94,3.97,3.32,6.01,2.18,1.05-1.52-3.95-2.85-4.86-3.33-4.99-2.64-5.77-9.66.04-11.81,5.19-1.92,9.5-.1,12.82,4.01l-3.49,3.87c-.77.15-5.61-4.76-7.02-1.96l.2.69c2.15,1.75,5.03,2.15,7.2,3.85,5.44,4.26,3.99,10.77-3.22,11.38-4.32.36-7.87-.87-10.8-4.07-5.81,5.71-15.88,6.7-19.36-2.01-3.17-7.92.96-16.34,10-16.26,5.54.04,9.4,3.39,9.69,8.98l-12.21,5.68ZM40.8,157.64c-2.52-3.26-8.04-1.22-7.2,3.12l7.2-3.12Z"/>
  <path d="M146.64,165.8c-.45.6,1.61,1.04,1.91,1.09,3.71.61,6.15-1.38,8.89-3.49l1.21,4.32,3-3.13c1.73.94,3.97,3.32,6.01,2.18,1.05-1.52-3.95-2.85-4.86-3.33-4.99-2.64-5.77-9.66.04-11.81,5.19-1.92,9.5-.1,12.82,4.01l-3.49,3.87c-.77.15-5.61-4.76-7.02-1.96l.2.69c2.15,1.75,5.03,2.15,7.2,3.85,5.44,4.26,3.99,10.77-3.22,11.38-4.32.36-7.87-.87-10.8-4.07-5.81,5.71-15.88,6.7-19.36-2.01-3.17-7.92.96-16.34,10-16.26,5.54.04,9.4,3.39,9.69,8.98l-12.21,5.68ZM151.92,157.64c-2.52-3.26-8.04-1.22-7.2,3.12l7.2-3.12Z"/>
  <path d="M13.44,163.16l.37,8.66-9.25,1.43-4.56-29.04c6.9-1.06,16.66-3.85,22.56,1.07,3.83,3.19,4.65,7.24,1.43,11.28-.47.59-3.14,2.83-3.1,3.09l6.6,8.8-6.95,4.53-7.11-9.81ZM12.72,154.52c6.95-.45,6.67-4.82-.48-3.36l.48,3.36Z"/>
  <path d="M103.2,173.24l.72-20.88,7.56-1.44-.11,5.52c1.38-1.09,4.75-4.3,6.56-3.85l2.8,5.53,1.34-2.86c3.35-5.73,12.95-5.35,17.12-.83l-4.06,4.54c-2.8-1.99-6.66-2.03-7.33,2.01-.83,5.04,3.8,6,6.98,2.95l3.61,3.54c-3.7,6.73-15.16,8.92-17.58-.19-.83-3.13-.36-5.79-.19-8.93-2.82.67-7.8,3.48-8.81,6.31-.8,2.24.51,6.11.05,8.57h-8.64Z"/>
  <path d="M79.65,127.37l-15.09,6.86c4.88,2.95,9.58-.19,13.43-3.24l1.79,6.73c-4.33,4.66-12.24,7.98-18.27,4.83-10.65-5.56-9.35-25.25,3.88-26.44,7.89-.71,14.04,2.81,14.25,11.25ZM62.4,127.64l8.87-3.96c-3.47-3.4-9.73-1.41-8.87,3.96Z"/>
  <polygon points="88.32 115.4 90.24 129.32 92.64 116.12 101.21 119.83 94.9 143.01 85.67 142.89 79.7 117.22 88.32 115.4"/>
  <path d="M26.65,143.7l-5.18-36.24c7.58-2.82,17.68-3.74,25.01.21,12.24,6.59,10.16,20.79.8,28.96-5.92,5.17-12.8,7.13-20.63,7.06ZM37.2,131.72c4.44-1.52,7.9-6.42,7.45-11.17-.4-4.18-5.68-6.65-9.37-5.25l1.92,16.42Z"/>
  <path d="M74.11.03c40.82-1.33,66.53,43.68,47.45,78.89-.66,1.22-2.85,4.09-3.13,5.02-.17.57-.18,1.18-.06,1.76,2.43,2.19,4.18,5.72,7.33,6.83,2.87-.37,4.34,1.08,6.31,2.81,4.9,4.33,9.79,9.67,14.51,14.29,4.11,4.02,12.26,10.06,12.84,15.96.81,8.2-7.41,14.46-15.04,11.44-3.45-1.37-12.15-10.72-15.2-13.84-4.22-4.31-9.22-9.26-13.08-13.8-2.03-2.39-1.31-2.51-2.05-5.15-.86-3.06-5.12-5.19-7.12-7.54l-.96.15c-33.25,24.17-77.61,3.24-82.83-36.82C18.99,28.68,42.59,1.06,74.11.03ZM73.39,14.43c-28.6,1.55-45.51,33.07-31.67,58.17,15.22,27.6,55.69,26.49,68.48-2.64,11.61-26.43-7.46-57.12-36.81-55.53Z"/>
  <path d="M82.26,32.41c1.74-.35,3.86.79,3.92,2.7.02.73-.22,1.36-.38,2.04-1.06,4.41-3.7,9.75-5.22,14.22-2.25,6.58-4.06,14.59-6.78,20.82-.85,1.96-2,3.83-4.45,3.26-3.39-.79-1.87-4.55-1.25-6.8,1.63-5.91,3.77-12.18,5.76-18,1.63-4.79,3.56-11.21,5.71-15.65.51-1.06,1.47-2.34,2.69-2.59Z"/>
  <path d="M61.62,37.92c1.7-.35,5.02,2.63,4.52,4.29-.35.6-.72,1.18-1.21,1.69-2.67,2.79-5.83,5.25-8.53,8.03-.74.92-.65,1.95,0,2.88,1.6,2.31,5.37,5.14,7.32,7.56.67.83,1.52,1.78,1.28,2.95-.26,1.29-4.17,4.32-5.48,2.46-3.35-4.15-8.74-7.75-12-11.76-.62-.76-1.28-1.58-1.36-2.61.03-.69.81-1.77,1.27-2.29,3.14-3.52,8.91-9.25,12.57-12.15.39-.31,1.17-.94,1.62-1.04Z"/>
  <path d="M90.88,39.62c.81-.02,3.18,2.26,3.92,2.93,2.61,2.37,6.7,6.23,8.88,8.88,2.34,2.84-.62,5-2.64,7.21-2.49,2.73-7.01,7.41-9.84,9.6-.47.36-.92.82-1.56.86-1.01.02-4.62-3.23-3.86-4.59l9.26-9.47c.52-.58.71-1.5.25-2.17-1.27-1.84-7.79-6.86-8.3-8.49-.13-.43-.18-.88-.1-1.32.17-.98,3-3.4,3.99-3.43Z"/>
</svg>